<?xml version="1.0" standalone="no"?>
<!DOCTYPE svg PUBLIC "-//W3C//DTD SVG 20010904//EN"
 "http://www.w3.org/TR/2001/REC-SVG-20010904/DTD/svg10.dtd">
<svg version="1.0" xmlns="http://www.w3.org/2000/svg"
 width="113.000000pt" height="122.000000pt" viewBox="0 0 113.000000 122.000000"
 preserveAspectRatio="xMidYMid meet">

<g transform="translate(0.000000,122.000000) scale(0.100000,-0.100000)"
fill="white" stroke="none">
<path d="M484 1041 c-110 -18 -221 -65 -311 -133 -55 -42 -74 -78 -54 -102 24
-29 50 -25 98 14 213 169 522 172 728 6 22 -18 46 -36 53 -40 20 -12 62 21 62
49 0 47 -172 157 -296 190 -71 18 -213 26 -280 16z"/>
<path d="M438 831 c-97 -31 -208 -108 -208 -144 0 -22 28 -47 52 -47 11 0 42
16 68 35 83 61 134 78 235 79 78 0 98 -4 150 -27 33 -16 74 -42 91 -58 35 -34
79 -37 98 -6 26 41 -63 121 -182 163 -85 30 -218 32 -304 5z"/>
<path d="M517 669 c-32 -19 -50 -75 -37 -115 10 -29 35 -54 54 -54 3 0 0 14
-6 30 -13 38 -3 90 23 124 19 24 19 26 2 26 -10 0 -26 -5 -36 -11z"/>
<path d="M643 663 c-36 -7 -73 -59 -73 -101 l1 -37 14 26 c21 38 63 63 120 69
l50 5 -25 17 c-31 20 -58 26 -87 21z"/>
<path d="M395 552 c-16 -73 61 -142 129 -116 22 9 20 24 -3 24 -27 0 -81 48
-97 87 -17 40 -21 41 -29 5z"/>
<path d="M655 560 c-12 -4 -27 -16 -35 -26 -14 -16 -13 -17 8 -12 55 15 134
-36 151 -98 l8 -29 8 39 c10 53 -14 102 -60 122 -38 16 -51 16 -80 4z"/>
<path d="M655 464 c30 -32 41 -85 27 -130 -5 -19 -6 -34 -2 -34 17 0 60 62 60
86 0 37 -28 84 -56 94 -45 18 -55 12 -29 -16z"/>
<path d="M613 410 c-3 -36 -28 -72 -67 -96 l-30 -17 24 -9 c46 -17 110 28 110
79 0 24 -20 73 -29 73 -3 0 -7 -14 -8 -30z"/>
<path d="M540 400 c-39 -21 -76 -25 -114 -10 -34 13 -33 -3 1 -29 54 -43 101
-35 139 24 22 34 16 37 -26 15z"/>
<path d="M560 213 c-50 -19 -68 -84 -32 -116 26 -23 94 -22 115 1 22 24 22 75
0 95 -21 18 -62 28 -83 20z"/>
</g>
</svg>
